<svg width="24" height="24" viewBox="0 0 24 24" fill="none" xmlns="http://www.w3.org/2000/svg">
<g clip-path="url(#clip0_446_324)">
<path fill-rule="evenodd" clip-rule="evenodd" d="M11.9999 0C18.6274 0 24 5.37246 24 11.9998C24 18.6273 18.6274 23.9998 11.9999 23.9998C5.37261 24 0 18.6273 0 11.9998C0 5.37246 5.37261 0 11.9999 0ZM6.66127 13.2184L6.65834 13.2156C6.50503 13.0754 6.4226 12.8865 6.41303 12.6943C6.40346 12.5025 6.46674 12.3066 6.60522 12.152C6.60717 12.1498 6.60893 12.1479 6.61088 12.1459C6.75092 11.9928 6.93979 11.9102 7.13197 11.9006C7.32514 11.891 7.5222 11.9553 7.67728 12.0955L10.2077 14.39L16.2798 8.03086C16.4243 7.8793 16.6163 7.80039 16.8108 7.7957C17.0045 7.79082 17.2003 7.85996 17.352 8.0041C17.5038 8.14844 17.5825 8.34102 17.5874 8.53516C17.5922 8.7291 17.5229 8.9252 17.3788 9.07676L10.7966 15.9705C10.7921 15.9752 10.7872 15.9797 10.7823 15.9836C10.6427 16.1232 10.4603 16.1975 10.2749 16.2043C10.0847 16.2115 9.89152 16.1471 9.73898 16.009L6.66362 13.2203L6.66127 13.2184Z" fill="#1992D4"/>
</g>
<defs>
<clipPath id="clip0_446_324">
<rect width="24" height="24" fill="white"/>
</clipPath>
</defs>
</svg>
