<svg width="32" height="62" viewBox="0 0 32 62" fill="none" xmlns="http://www.w3.org/2000/svg">
<g clip-path="url(#clip0_446_303)">
<path d="M16 0C20.3949 0 24.3955 1.81841 27.2959 4.74382L27.3031 4.75229C30.201 7.67892 32 11.7162 32 16.1515V34.4469C32 38.8834 30.1987 42.9207 27.3007 45.8485L27.2935 45.8558C24.3931 48.7812 20.3937 50.5972 16 50.5972C11.6051 50.5972 7.60449 48.78 4.70412 45.8533L4.69693 45.8461C1.79895 42.9182 0 38.881 0 34.4469V16.1515C0 11.715 1.80135 7.67771 4.69933 4.74866L4.70652 4.7414C7.60689 1.8172 11.6063 0 16 0ZM11.84 54.119L15.9988 58.3196L20.166 54.119L21.9829 55.9628L15.9928 62L10.0135 55.9628L11.84 54.119ZM16 38.2833C17.4981 38.2833 18.7254 37.0456 18.7254 35.5333V31.8626C18.7254 30.3491 17.4981 29.1114 16 29.1114C14.5019 29.1114 13.2758 30.3491 13.2758 31.8626V35.5333C13.2758 37.0456 14.5019 38.2833 16 38.2833ZM16 2.60844C12.3074 2.60844 8.95281 4.13164 6.52584 6.5828C4.09169 9.03879 2.58397 12.4252 2.58397 16.1515V34.4469C2.58397 38.1732 4.09169 41.5596 6.52105 44.0107C8.95281 46.4667 12.3074 47.9887 16 47.9887C19.6926 47.9887 23.0472 46.4667 25.4742 44.0144C27.9071 41.5596 29.416 38.1732 29.416 34.4469V16.1515C29.416 12.4252 27.9071 9.03879 25.479 6.58764C23.0472 4.13164 19.6926 2.60844 16 2.60844Z" fill="#F0F4F8"/>
</g>
<defs>
<clipPath id="clip0_446_303">
<rect width="32" height="62" fill="white"/>
</clipPath>
</defs>
</svg>
