<svg width="46" height="47" viewBox="0 0 46 47" fill="none" xmlns="http://www.w3.org/2000/svg">
<path d="M0 46.13V44.7294C0 33.9245 0 23.1179 0 12.3096C0 5.31987 4.66334 0.742187 11.7726 0.739594H45.7533C46.1211 1.1001 45.9687 1.51768 45.9687 1.88078C45.9792 12.9018 45.9792 23.9228 45.9687 34.9438C45.9687 41.3189 41.2397 46.0963 34.8555 46.117C23.3009 46.1611 11.7464 46.13 0 46.13ZM10.7717 15.1107C12.1378 17.4682 13.4908 19.7947 14.9568 22.3182C17.6182 17.7302 20.1588 13.3496 22.7335 8.91459C18.7269 8.45033 13.5775 11.1347 10.769 15.1107H10.7717ZM10.1254 16.3945C7.40618 20.3549 7.83967 26.0582 9.45016 29.4506C9.49376 29.5724 9.57689 29.6766 9.68664 29.747C9.79638 29.8173 9.92661 29.8499 10.0571 29.8396C12.6028 29.8396 15.1486 29.8396 17.8862 29.8396L10.1254 16.3945ZM35.515 16.0444C33.1688 12.1695 29.9189 9.95202 25.6865 9.04167C24.5173 8.78231 23.8842 9.07798 23.3509 10.1595C22.5312 11.8194 21.5118 13.3808 20.5975 14.9991C20.4267 15.3052 20.0353 15.5827 20.2875 16.0366L35.515 16.0444ZM30.8569 24.6706L23.096 38.0587C28.2428 37.7786 32.0733 35.6519 34.958 31.7434L30.8569 24.6706ZM27.9222 17.2997L35.6673 30.6177C37.9267 26.3331 38.1474 22.1497 36.4319 17.8469C36.375 17.6638 36.2537 17.5068 36.09 17.4041C35.9262 17.3014 35.7307 17.2597 35.5386 17.2867C33.09 17.31 30.6414 17.2997 27.9222 17.2997ZM10.4905 31.0742C10.5983 31.7537 10.9871 32.1116 11.3102 32.4981C13.2246 34.8835 15.8302 36.636 18.7795 37.5219C21.5959 38.3622 21.588 38.3881 23.0198 35.9242C23.4533 35.1747 23.9131 34.4381 24.315 33.673C24.7617 32.8275 25.4237 32.0805 25.6628 31.0794L10.4905 31.0742Z" fill="#243B53"/>
</svg>
